<?xml version="1.0" encoding="UTF-8"?>
<svg id="Layer_2" data-name="Layer 2" xmlns="http://www.w3.org/2000/svg" viewBox="0 0 499.4 499.4">
  <defs>
    <style>
      .cls-1 {
        fill: #fff;
      }
    </style>
  </defs>
  <g id="Layer_1-2" data-name="Layer 1">
    <g id="_2" data-name=" 2">
      <path class="cls-1" d="m327.73,265.3h-156.05c-8.62,0-15.6,6.99-15.6,15.6s6.99,15.6,15.6,15.6h156.06c8.62,0,15.6-6.99,15.6-15.6s-6.99-15.6-15.6-15.6h0Zm31.21-93.64h-218.49c-8.62,0-15.6,6.99-15.6,15.6s6.99,15.6,15.6,15.6h218.5c8.62,0,15.6-6.99,15.6-15.6s-6.99-15.6-15.6-15.6h0ZM249.7,0C111.8,0,0,97.82,0,218.49c0,68.96,36.6,130.36,93.64,170.41v110.5l109.39-66.37c15.14,2.5,30.71,3.95,46.68,3.95,137.91,0,249.7-97.82,249.7-218.49S387.62,0,249.7,0Zm0,405.76c-18.23,0-35.83-2.12-52.75-5.73l-73.47,44.16.99-72.38c-56.32-33.88-93.25-89.88-93.25-153.33,0-103.42,97.82-187.28,218.49-187.28s218.49,83.85,218.49,187.28-97.82,187.28-218.49,187.28h0Z"/>
    </g>
  </g>
</svg>