<?xml version="1.0" encoding="UTF-8"?>
<svg id="Layer_2" data-name="Layer 2" xmlns="http://www.w3.org/2000/svg" viewBox="0 0 498.73 498.74">
  <defs>
    <style>
      .cls-1 {
        fill: #fff;
      }
    </style>
  </defs>
  <g id="Layer_1-2" data-name="Layer 1">
    <path class="cls-1" d="m412.04,0c-10.63,0-21.27,4.06-29.39,12.18l-50.17,50.17,103.9,103.9,50.17-50.17c16.23-16.23,16.23-42.54,0-58.77l-45.13-45.13c-8.11-8.11-18.75-12.18-29.39-12.18Zm-121.11,103.9L46.96,347.88s19.07-1.71,26.18,5.4c7.11,7.11,1.26,53.61,9.98,62.34,8.73,8.73,54.94,2.58,61.57,9.21,6.63,6.63,6.17,26.95,6.17,26.95l243.97-243.97-103.9-103.9ZM20.78,415.62L1.18,471.14c-.77,2.19-1.17,4.5-1.18,6.82,0,11.48,9.3,20.78,20.78,20.78,2.32,0,4.63-.41,6.82-1.18.07-.03.14-.05.2-.08l.53-.16s.08-.05.12-.08l54.67-19.28-31.17-31.17-31.17-31.17Z"/>
  </g>
</svg>