<?xml version="1.0" encoding="UTF-8"?><svg id="Layer_2" xmlns="http://www.w3.org/2000/svg" xmlns:xlink="http://www.w3.org/1999/xlink" viewBox="0 0 1600 256.82"><defs><style>.cls-1{fill:none;}.cls-2{clip-path:url(#clippath);}.cls-3{fill:#231f20;}.cls-4{fill:#a7d1c9;filter:url(#drop-shadow-1);}</style><clipPath id="clippath"><rect class="cls-1" width="1600" height="256.82"/></clipPath><filter id="drop-shadow-1" filterUnits="userSpaceOnUse"><feOffset dx="5" dy="15"/><feGaussianBlur result="blur" stdDeviation="10"/><feFlood flood-color="#231f20" flood-opacity=".5"/><feComposite in2="blur" operator="in"/><feComposite in="SourceGraphic"/></filter></defs><g id="Exports"><g class="cls-2"><path class="cls-4" d="M1600,172.99s-101.27,45.63-392.91,43.78c-291.65-1.86-550.89-78.27-810.13-78.27S0,172.99,0,172.99V-1.5H1600V172.99Z"/><g><path class="cls-3" d="M1206.45,88.47l-.56-7.91c2.17-2.22,4.38-4.38,6.62-6.47,2.24-2.1,4.75-4.37,7.51-6.83,2.77-2.45,5.64-4.82,8.61-7.1,2.97-2.28,6.37-4.65,10.21-7.11,3.9,4.89,6.01,9.69,6.34,14.38,.18,2.57-.17,5.47-1.04,8.7-.87,3.23-2.11,6.93-3.72,11.11s-3.62,9.43-6.02,15.73c-6.41,17.31-11.1,31.54-14.1,42.7-2.99,11.16-4.35,18.7-4.08,22.62,.02,.32,.33,1.56,.94,3.71,.6,2.15,.94,3.78,1.02,4.87,.13,1.86-.33,2.9-1.38,3.1-1.05,.2-2.57-.08-4.57-.84-5.12-2.09-8.59-4.18-10.42-6.24-1.83-2.07-2.86-4.84-3.1-8.31-.44-6.23,1.16-16.07,4.81-29.5,1.85-6.78,4.09-13.56,6.71-20.33s5.58-13.65,8.87-20.63c3.29-6.98,6.4-13.42,9.35-19.31-7.05,3.53-14.39,8.08-22,13.66Z"/><path class="cls-3" d="M1292.49,161.77l1.57,1.63c-5.35,4.77-10.05,8.44-14.1,11.02s-7.55,3.97-10.51,4.18c-2.57,.18-4.58-.52-6.01-2.1s-2.25-3.78-2.45-6.61c-.37-5.33,1.57-13.11,5.82-23.32,4.26-10.21,11.17-21.81,20.76-34.79s21.52-25.75,35.82-38.31c-8.31-.58-16.64-.57-25,.01-7.07,.5-12.63,1.37-16.67,2.62-4.05,1.25-7.9,2.88-11.57,4.88-1.31,.67-2.75,1.61-4.31,2.82-1.56,1.21-2.47,1.82-2.73,1.84-.58,.04-1.29-.25-2.14-.87s-1.31-1.38-1.37-2.28c-.09-1.35,1.11-3.95,3.62-7.81,2.51-3.86,4.38-7.09,5.62-9.7,1.64-3.34,3.41-5.73,5.31-7.15,1.55-.95,6.1-2.11,13.66-3.48,7.56-1.37,16.93-2.45,28.11-3.23,1.8-.13,3.97-.23,6.52-.31s5.29-.11,8.23-.09c2.94,.02,5.09,.02,6.44-.02,1.47,2.61,2.66,5.43,3.55,8.47,.89,3.04,1.41,5.52,1.54,7.45,.12,1.74-.06,3.1-.54,4.11s-1.44,2.2-2.9,3.59c-2.83,2.91-5.79,6.03-8.89,9.34s-6.66,7.48-10.7,12.47c-4.04,5-7.89,10.26-11.53,15.78-3.65,5.52-7.24,11.57-10.79,18.15-3.55,6.51-6.22,12.4-8.01,17.66s-2.57,9.6-2.33,13c.12,1.74,.76,2.56,1.92,2.48,1.22-.09,2.58-.57,4.07-1.45Z"/><path class="cls-3" d="M1388.9,103.94c3.33,5.19,5.98,9.69,7.92,13.49,1.95,3.8,3.04,7.38,3.27,10.72,.6,8.55-.87,15.93-4.4,22.16-3.54,6.22-8.13,10.95-13.78,14.19-5.65,3.24-11.5,5.07-17.54,5.49-5.14,.36-10.06-.71-14.76-3.23-4.7-2.51-7.2-5.95-7.51-10.32-.22-3.15,.76-7.06,2.95-11.74,2.19-4.67,5.52-10.09,10-16.25,4.48-6.16,10.05-13.19,16.73-21.08-10.22-10.39-15.66-20.12-16.29-29.18-.45-6.43,.51-12.06,2.88-16.92,2.37-4.85,6.14-8.97,11.29-12.37,5.15-3.4,11.59-6.08,19.3-8.04,7.71-1.96,16.87-3.32,27.47-4.06,6.75-.47,11.46-.53,14.13-.17,2.67,.36,4.09,1.64,4.24,3.82,.05,.64-.23,1.84-.81,3.59-.59,1.75-1.46,3.8-2.62,6.14-1.16,2.34-2.47,4.57-3.94,6.67-.76,1.15-1.6,1.89-2.51,2.21-.92,.32-2.54,.47-4.86,.44,1.29,1.85,1.98,3.38,2.07,4.6,.12,1.74-.61,3.56-2.18,5.48-1.58,1.92-4.76,5.29-9.56,10.12-4.79,4.83-8.93,9.27-12.39,13.32-1.25,1.44-2.77,3.26-4.56,5.45-1.78,2.19-3.3,4.01-4.56,5.46Zm-10.13,11.66c-7.97,9.73-14.12,18.01-18.45,24.84-4.33,6.83-6.43,11.17-6.3,13.04,.29,4.18,4.07,6.01,11.34,5.5,2.31-.16,4.75-.9,7.3-2.21,2.56-1.31,4.82-3.03,6.81-5.18,1.98-2.14,3.55-4.79,4.72-7.94,1.17-3.15,1.62-6.56,1.36-10.22-.49-7-2.75-12.95-6.77-17.84Zm3.76-19.54c3.31-3.4,7.23-7.35,11.76-11.87,4.53-4.52,8.6-8.58,12.22-12.19,3.62-3.61,6.15-6.28,7.58-7.99,1.43-1.71,2.13-2.8,2.1-3.25-.13-1.8-4.47-2.4-13.01-1.8-10.8,.76-18.82,2.84-24.07,6.24-5.25,3.41-7.69,7.81-7.31,13.21,.16,2.31,1.19,5.02,3.09,8.11,1.9,3.1,4.44,6.28,7.65,9.54Z"/><path class="cls-3" d="M1493.53,90.1c-6.36,5.94-11.87,10.85-16.5,14.72-4.64,3.88-8.83,6.93-12.58,9.17-3.75,2.23-7.17,3.46-10.25,3.68-2.25,.16-5.14-1.24-8.67-4.19s-6.64-6.69-9.31-11.21c-2.68-4.53-4.17-8.97-4.47-13.35-.56-8.03,2.92-16.61,10.45-25.73,7.53-9.12,16.49-16.93,26.88-23.45,10.39-6.51,18.64-9.98,24.75-10.41,3.21-.23,6.31,.62,9.29,2.54,2.98,1.92,5.36,4.11,7.15,6.57,1.79,2.46,2.73,4.39,2.83,5.81,.14,2.06-1.06,4.64-3.62,7.76-2.56,3.12-5.41,5.98-8.55,8.59-3.14,2.61-5.17,3.95-6.06,4.01-.39,.03-.6-.22-.63-.73-.05-.77,1.65-3.15,5.12-7.14,1.91-2.2,2.82-3.98,2.73-5.33-.06-.83-.47-1.23-1.24-1.17-1.29,.09-4.49,1.41-9.6,3.97-5.12,2.56-10.57,5.88-16.35,9.97-5.78,4.09-10.95,8.75-15.49,13.97-3.4,4.05-5.88,8.2-7.46,12.44-1.58,4.24-2.29,7.43-2.14,9.55,.21,3.02,2.08,4.41,5.62,4.16,2.06-.14,5.19-1.24,9.41-3.28,4.22-2.04,8.62-4.71,13.2-8,4.58-3.29,8.4-6.69,11.44-10.2,6.46-7.36,10.98-12.19,13.56-14.47,2.59-2.28,4.97-3.5,7.15-3.65,1.54-.11,2.87,.2,3.99,.93,1.12,.73,1.72,1.74,1.81,3.02,.03,.45-1.69,3.96-5.17,10.54-9.73,18.77-16.89,32.45-21.48,41.04-4.6,8.59-8.91,16.21-12.93,22.85-4.02,6.65-7.95,11.94-11.77,15.89s-7.31,6.04-10.46,6.26c-1.86,.13-2.88-1.06-3.06-3.56-.14-2.06,.91-5.71,3.15-10.98,2.25-5.26,5.3-7.96,9.17-8.1,6.89-11.27,12.41-20.59,16.54-27.95,4.13-7.36,8.66-15.54,13.58-24.54Z"/></g></g></g></svg>