<?xml version="1.0" encoding="UTF-8"?>
<svg id="Layer_2" data-name="Layer 2" xmlns="http://www.w3.org/2000/svg" xmlns:xlink="http://www.w3.org/1999/xlink" viewBox="0 0 173.96 159.57">
  <defs>
    <style>
      .cls-1, .cls-2 {
        fill: none;
      }

      .cls-3 {
        fill: url(#linear-gradient);
      }

      .cls-4 {
        clip-path: url(#clippath);
      }

      .cls-5 {
        fill: #006838;
      }

      .cls-6 {
        fill: #009444;
      }

      .cls-7 {
        fill: #f26522;
      }

      .cls-8 {
        fill: #ffde17;
      }

      .cls-9 {
        fill: #ed1c24;
      }

      .cls-10 {
        fill: #3c2415;
      }

      .cls-11 {
        fill: #e6e7e8;
        stroke-width: 1.88px;
      }

      .cls-11, .cls-2 {
        stroke: #ffde17;
        stroke-miterlimit: 10;
      }

      .cls-2 {
        stroke-width: 2px;
      }

      .cls-12 {
        fill: url(#linear-gradient-2);
        opacity: .44;
      }
    </style>
    <clipPath id="clippath">
      <path class="cls-1" d="m0,16.49l6.6,7.09c7.03,7.56,7.44,18.08,1.01,26.01L0,58.96l131.5-11.59c4.78-.42,9.61.28,13.95,2.03l29.2,11.79c4,1.62,8.81.23,10.8-3.11l5.45-9.17c1.87-3.15-.48-6.91-4.62-7.4l-41.32-4.87,39.3-17.59c2.95-1.32,3.7-4.6,1.54-6.75l-10.82-10.76c-2.02-2.01-5.68-2.08-7.8-.14l-21.24,19.36c-3.52,3.21-8.59,4.88-13.76,4.53L0,16.49Z"/>
    </clipPath>
    <symbol id="New_Symbol" data-name="New Symbol" viewBox="0 0 191.54 61.87">
      <g class="cls-4">
        <rect class="cls-7" x="6.6" y="0" width="184.94" height="61.87"/>
        <g>
          <line class="cls-2" x1="20.49" y1="18.69" x2="20.49" y2="55.78"/>
          <line class="cls-2" x1="48.75" y1="18.69" x2="48.75" y2="55.78"/>
          <line class="cls-2" x1="62.88" y1="18.69" x2="62.88" y2="55.78"/>
          <line class="cls-2" x1="77.01" y1="18.69" x2="77.01" y2="55.78"/>
          <line class="cls-2" x1="91.15" y1="18.69" x2="91.15" y2="55.78"/>
          <line class="cls-2" x1="105.28" y1="18.69" x2="105.28" y2="55.78"/>
          <line class="cls-2" x1="119.41" y1="18.69" x2="119.41" y2="55.78"/>
          <line class="cls-2" x1="133.54" y1="18.69" x2="133.54" y2="55.78"/>
          <line class="cls-2" x1="34.62" y1="18.69" x2="34.62" y2="55.78"/>
        </g>
      </g>
    </symbol>
    <linearGradient id="linear-gradient" x1="0" y1="73.97" x2="112.94" y2="73.97" gradientUnits="userSpaceOnUse">
      <stop offset="0" stop-color="#fff"/>
      <stop offset=".97" stop-color="#f5eb00"/>
      <stop offset="1" stop-color="#f3ec5a"/>
    </linearGradient>
    <linearGradient id="linear-gradient-2" x1="23.99" y1="133.79" x2="135.85" y2="133.79" gradientTransform="translate(57.14 -65.41) rotate(20.2)" gradientUnits="userSpaceOnUse">
      <stop offset="0" stop-color="#fff"/>
      <stop offset="1" stop-color="#e6e86a"/>
    </linearGradient>
  </defs>
  <g id="Layer_1-2" data-name="Layer 1">
    <g>
      <circle class="cls-10" cx="94.17" cy="79.78" r="79.78"/>
      <g>
        <circle class="cls-6" cx="94.67" cy="80.68" r="70.53"/>
        <polygon class="cls-3" points="9.3 73.22 87.03 3.04 75.24 32.55 95.61 13.55 91.68 30.28 108.38 20.31 91.02 46.77 112.94 36.92 0 144.9 36.83 72.19 9.3 73.22"/>
        <g>
          <path class="cls-8" d="m144.68,64.59l-.11.67-.82-.12c-.14-.02-.28.04-.35.16l-.32.5.42.46c.15.16.52.58.11.59l-.24.62.61.34.54.87.47-.23c.12-.06.27-.06.39,0l.64.32.58-.75c.05-.07-.28-.55.18-.17l.57-.39.09-.9-.74-.47.27-.73c.04-.16-.03-.32-.17-.41l-.55-.35-.48.4-.6-.74-.24.05c-.13.03-.24.13-.26.27Z"/>
          <path class="cls-8" d="m143.51,130.25l-.11.67-.82-.12c-.14-.02-.28.04-.35.16l-.32.5.42.46c.15.16.52.58.11.59l-.24.62.61.34.54.87.47-.23c.12-.06.27-.06.39,0l.64.32.58-.75c.05-.07-.28-.55.18-.17l.57-.39.09-.9-.74-.47.27-.73c.04-.16-.03-.32-.17-.41l-.55-.35-.48.4-.6-.74-.24.05c-.13.03-.24.13-.26.27Z"/>
          <path class="cls-8" d="m142.01,36.3l-.11.67-.82-.12c-.14-.02-.28.04-.35.16l-.32.5.42.46c.15.16.52.58.11.59l-.24.62.61.34.54.87.47-.23c.12-.06.27-.06.39,0l.64.32.58-.75c.05-.07-.28-.55.18-.17l.57-.39.09-.9-.74-.47.27-.73c.04-.16-.03-.32-.17-.41l-.55-.35-.48.4-.6-.74-.24.05c-.13.03-.24.13-.26.27Z"/>
          <path class="cls-8" d="m139.95,94.61l-.11.67-.82-.12c-.14-.02-.28.04-.35.16l-.32.5.42.46c.15.16.52.58.11.59l-.24.62.61.34.54.87.47-.23c.12-.06.27-.06.39,0l.64.32.58-.75c.05-.07-.28-.55.18-.17l.57-.39.09-.9-.74-.47.27-.73c.04-.16-.03-.32-.17-.41l-.55-.35-.48.4-.6-.74-.24.05c-.13.03-.24.13-.26.27Z"/>
          <path class="cls-8" d="m139,98.67l-.11.67-.82-.12c-.14-.02-.28.04-.35.16l-.32.5.42.46c.15.16.52.58.11.59l-.24.62.61.34.54.87.47-.23c.12-.06.27-.06.39,0l.64.32.58-.75c.05-.07-.28-.55.18-.17l.57-.39.09-.9-.74-.47.27-.73c.04-.16-.03-.32-.17-.41l-.55-.35-.48.4-.6-.74-.24.05c-.13.03-.24.13-.26.27Z"/>
          <path class="cls-8" d="m138.06,30.49l-.11.67-.82-.12c-.14-.02-.28.04-.35.16l-.32.5.42.46c.15.16.52.58.11.59l-.24.62.61.34.54.87.47-.23c.12-.06.27-.06.39,0l.64.32.58-.75c.05-.07-.28-.55.18-.17l.57-.39.09-.9-.74-.47.27-.73c.04-.16-.03-.32-.17-.41l-.55-.35-.48.4-.6-.74-.24.05c-.13.03-.24.13-.26.27Z"/>
          <path class="cls-8" d="m136.54,51.22l-.11.67-.82-.12c-.14-.02-.28.04-.35.16l-.32.5.42.46c.15.16.52.58.11.59l-.24.62.61.34.54.87.47-.23c.12-.06.27-.06.39,0l.64.32.58-.75c.05-.07-.28-.55.18-.17l.57-.39.09-.9-.74-.47.27-.73c.04-.16-.03-.32-.17-.41l-.55-.35-.48.4-.6-.74-.24.05c-.13.03-.24.13-.26.27Z"/>
          <path class="cls-8" d="m135.91,90.54l-.11.67-.82-.12c-.14-.02-.28.04-.35.16l-.32.5.42.46c.15.16.52.58.11.59l-.24.62.61.34.54.87.47-.23c.12-.06.27-.06.39,0l.64.32.58-.75c.05-.07-.28-.55.18-.17l.57-.39.09-.9-.74-.47.27-.73c.04-.16-.03-.32-.17-.41l-.55-.35-.48.4-.6-.74-.24.05c-.13.03-.24.13-.26.27Z"/>
          <path class="cls-8" d="m134.39,129.71l-.11.67-.82-.12c-.14-.02-.28.04-.35.16l-.32.5.42.46c.15.16.52.58.11.59l-.24.62.61.34.54.87.47-.23c.12-.06.27-.06.39,0l.64.32.58-.75c.05-.07-.28-.55.18-.17l.57-.39.09-.9-.74-.47.27-.73c.04-.16-.03-.32-.17-.41l-.55-.35-.48.4-.6-.74-.24.05c-.13.03-.24.13-.26.27Z"/>
          <path class="cls-8" d="m132.5,126.63l-.11.67-.82-.12c-.14-.02-.28.04-.35.16l-.32.5.42.46c.15.16.52.58.11.59l-.24.62.61.34.54.87.47-.23c.12-.06.27-.06.39,0l.64.32.58-.75c.05-.07-.28-.55.18-.17l.57-.39.09-.9-.74-.47.27-.73c.04-.16-.03-.32-.17-.41l-.55-.35-.48.4-.6-.74-.24.05c-.13.03-.24.13-.26.27Z"/>
          <path class="cls-8" d="m131.95,66.64l-.11.67-.82-.12c-.14-.02-.28.04-.35.16l-.32.5.42.46c.15.16.52.58.11.59l-.24.62.61.34.54.87.47-.23c.12-.06.27-.06.39,0l.64.32.58-.75c.05-.07-.28-.55.18-.17l.57-.39.09-.9-.74-.47.27-.73c.04-.16-.03-.32-.17-.41l-.55-.35-.48.4-.6-.74-.24.05c-.13.03-.24.13-.26.27Z"/>
          <path class="cls-8" d="m130.71,70.76l-.11.67-.82-.12c-.14-.02-.28.04-.35.16l-.32.5.42.46c.15.16.52.58.11.59l-.24.62.61.34.54.87.47-.23c.12-.06.27-.06.39,0l.64.32.58-.75c.05-.07-.28-.55.18-.17l.57-.39.09-.9-.74-.47.27-.73c.04-.16-.03-.32-.17-.41l-.55-.35-.48.4-.6-.74-.24.05c-.13.03-.24.13-.26.27Z"/>
          <path class="cls-8" d="m129.08,117.24l-.11.67-.82-.12c-.14-.02-.28.04-.35.16l-.32.5.42.46c.15.16.52.58.11.59l-.24.62.61.34.54.87.47-.23c.12-.06.27-.06.39,0l.64.32.58-.75c.05-.07-.28-.55.18-.17l.57-.39.09-.9-.74-.47.27-.73c.04-.16-.03-.32-.17-.41l-.55-.35-.48.4-.6-.74-.24.05c-.13.03-.24.13-.26.27Z"/>
          <path class="cls-8" d="m127.02,107.27l-.11.67-.82-.12c-.14-.02-.28.04-.35.16l-.32.5.42.46c.15.16.52.58.11.59l-.24.62.61.34.54.87.47-.23c.12-.06.27-.06.39,0l.64.32.58-.75c.05-.07-.28-.55.18-.17l.57-.39.09-.9-.74-.47.27-.73c.04-.16-.03-.32-.17-.41l-.55-.35-.48.4-.6-.74-.24.05c-.13.03-.24.13-.26.27Z"/>
          <path class="cls-8" d="m125.47,44.37l-.11.67-.82-.12c-.14-.02-.28.04-.35.16l-.32.5.42.46c.15.16.52.58.11.59l-.24.62.61.34.54.87.47-.23c.12-.06.27-.06.39,0l.64.32.58-.75c.05-.07-.28-.55.18-.17l.57-.39.09-.9-.74-.47.27-.73c.04-.16-.03-.32-.17-.41l-.55-.35-.48.4-.6-.74-.24.05c-.13.03-.24.13-.26.27Z"/>
          <path class="cls-8" d="m123.88,109.96l-.11.67-.82-.12c-.14-.02-.28.04-.35.16l-.32.5.42.46c.15.16.52.58.11.59l-.24.62.61.34.54.87.47-.23c.12-.06.27-.06.39,0l.64.32.58-.75c.05-.07-.28-.55.18-.17l.57-.39.09-.9-.74-.47.27-.73c.04-.16-.03-.32-.17-.41l-.55-.35-.48.4-.6-.74-.24.05c-.13.03-.24.13-.26.27Z"/>
          <path class="cls-8" d="m123.23,51.62l-.11.67-.82-.12c-.14-.02-.28.04-.35.16l-.32.5.42.46c.15.16.52.58.11.59l-.24.62.61.34.54.87.47-.23c.12-.06.27-.06.39,0l.64.32.58-.75c.05-.07-.28-.55.18-.17l.57-.39.09-.9-.74-.47.27-.73c.04-.16-.03-.32-.17-.41l-.55-.35-.48.4-.6-.74-.24.05c-.13.03-.24.13-.26.27Z"/>
          <path class="cls-8" d="m121.64,54.86l-.11.67-.82-.12c-.14-.02-.28.04-.35.16l-.32.5.42.46c.15.16.52.58.11.59l-.24.62.61.34.54.87.47-.23c.12-.06.27-.06.39,0l.64.32.58-.75c.05-.07-.28-.55.18-.17l.57-.39.09-.9-.74-.47.27-.73c.04-.16-.03-.32-.17-.41l-.55-.35-.48.4-.6-.74-.24.05c-.13.03-.24.13-.26.27Z"/>
          <path class="cls-8" d="m121,89.74l-.11.67-.82-.12c-.14-.02-.28.04-.35.16l-.32.5.42.46c.15.16.52.58.11.59l-.24.62.61.34.54.87.47-.23c.12-.06.27-.06.39,0l.64.32.58-.75c.05-.07-.28-.55.18-.17l.57-.39.09-.9-.74-.47.27-.73c.04-.16-.03-.32-.17-.41l-.55-.35-.48.4-.6-.74-.24.05c-.13.03-.24.13-.26.27Z"/>
          <path class="cls-8" d="m119.69,89.48l-.11.67-.82-.12c-.14-.02-.28.04-.35.16l-.32.5.42.46c.15.16.52.58.11.59l-.24.62.61.34.54.87.47-.23c.12-.06.27-.06.39,0l.64.32.58-.75c.05-.07-.28-.55.18-.17l.57-.39.09-.9-.74-.47.27-.73c.04-.16-.03-.32-.17-.41l-.55-.35-.48.4-.6-.74-.24.05c-.13.03-.24.13-.26.27Z"/>
          <path class="cls-8" d="m118.99,120.33l-.11.67-.82-.12c-.14-.02-.28.04-.35.16l-.32.5.42.46c.15.16.52.58.11.59l-.24.62.61.34.54.87.47-.23c.12-.06.27-.06.39,0l.64.32.58-.75c.05-.07-.28-.55.18-.17l.57-.39.09-.9-.74-.47.27-.73c.04-.16-.03-.32-.17-.41l-.55-.35-.48.4-.6-.74-.24.05c-.13.03-.24.13-.26.27Z"/>
          <path class="cls-8" d="m117.8,86.46l-.11.67-.82-.12c-.14-.02-.28.04-.35.16l-.32.5.42.46c.15.16.52.58.11.59l-.24.62.61.34.54.87.47-.23c.12-.06.27-.06.39,0l.64.32.58-.75c.05-.07-.28-.55.18-.17l.57-.39.09-.9-.74-.47.27-.73c.04-.16-.03-.32-.17-.41l-.55-.35-.48.4-.6-.74-.24.05c-.13.03-.24.13-.26.27Z"/>
          <path class="cls-8" d="m117.01,27.62l-.11.67-.82-.12c-.14-.02-.28.04-.35.16l-.32.5.42.46c.15.16.52.58.11.59l-.24.62.61.34.54.87.47-.23c.12-.06.27-.06.39,0l.64.32.58-.75c.05-.07-.28-.55.18-.17l.57-.39.09-.9-.74-.47.27-.73c.04-.16-.03-.32-.17-.41l-.55-.35-.48.4-.6-.74-.24.05c-.13.03-.24.13-.26.27Z"/>
          <path class="cls-8" d="m115.16,27.34l-.11.67-.82-.12c-.14-.02-.28.04-.35.16l-.32.5.42.46c.15.16.52.58.11.59l-.24.62.61.34.54.87.47-.23c.12-.06.27-.06.39,0l.64.32.58-.75c.05-.07-.28-.55.18-.17l.57-.39.09-.9-.74-.47.27-.73c.04-.16-.03-.32-.17-.41l-.55-.35-.48.4-.6-.74-.24.05c-.13.03-.24.13-.26.27Z"/>
          <path class="cls-8" d="m113.56,73.96l-.11.67-.82-.12c-.14-.02-.28.04-.35.16l-.32.5.42.46c.15.16.52.58.11.59l-.24.62.61.34.54.87.47-.23c.12-.06.27-.06.39,0l.64.32.58-.75c.05-.07-.28-.55.18-.17l.57-.39.09-.9-.74-.47.27-.73c.04-.16-.03-.32-.17-.41l-.55-.35-.48.4-.6-.74-.24.05c-.13.03-.24.13-.26.27Z"/>
          <path class="cls-8" d="m111.84,70.42l-.11.67-.82-.12c-.14-.02-.28.04-.35.16l-.32.5.42.46c.15.16.52.58.11.59l-.24.62.61.34.54.87.47-.23c.12-.06.27-.06.39,0l.64.32.58-.75c.05-.07-.28-.55.18-.17l.57-.39.09-.9-.74-.47.27-.73c.04-.16-.03-.32-.17-.41l-.55-.35-.48.4-.6-.74-.24.05c-.13.03-.24.13-.26.27Z"/>
          <path class="cls-8" d="m110.49,101.2l-.11.67-.82-.12c-.14-.02-.28.04-.35.16l-.32.5.42.46c.15.16.52.58.11.59l-.24.62.61.34.54.87.47-.23c.12-.06.27-.06.39,0l.64.32.58-.75c.05-.07-.28-.55.18-.17l.57-.39.09-.9-.74-.47.27-.73c.04-.16-.03-.32-.17-.41l-.55-.35-.48.4-.6-.74-.24.05c-.13.03-.24.13-.26.27Z"/>
          <path class="cls-8" d="m109.31,64.76l-.11.67-.82-.12c-.14-.02-.28.04-.35.16l-.32.5.42.46c.15.16.52.58.11.59l-.24.62.61.34.54.87.47-.23c.12-.06.27-.06.39,0l.64.32.58-.75c.05-.07-.28-.55.18-.17l.57-.39.09-.9-.74-.47.27-.73c.04-.16-.03-.32-.17-.41l-.55-.35-.48.4-.6-.74-.24.05c-.13.03-.24.13-.26.27Z"/>
          <path class="cls-8" d="m108.68,35.43l-.11.67-.82-.12c-.14-.02-.28.04-.35.16l-.32.5.42.46c.15.16.52.58.11.59l-.24.62.61.34.54.87.47-.23c.12-.06.27-.06.39,0l.64.32.58-.75c.05-.07-.28-.55.18-.17l.57-.39.09-.9-.74-.47.27-.73c.04-.16-.03-.32-.17-.41l-.55-.35-.48.4-.6-.74-.24.05c-.13.03-.24.13-.26.27Z"/>
          <path class="cls-8" d="m107.51,112.81l-.11.67-.82-.12c-.14-.02-.28.04-.35.16l-.32.5.42.46c.15.16.52.58.11.59l-.24.62.61.34.54.87.47-.23c.12-.06.27-.06.39,0l.64.32.58-.75c.05-.07-.28-.55.18-.17l.57-.39.09-.9-.74-.47.27-.73c.04-.16-.03-.32-.17-.41l-.55-.35-.48.4-.6-.74-.24.05c-.13.03-.24.13-.26.27Z"/>
          <path class="cls-8" d="m106.58,67.38l-.11.67-.82-.12c-.14-.02-.28.04-.35.16l-.32.5.42.46c.15.16.52.58.11.59l-.24.62.61.34.54.87.47-.23c.12-.06.27-.06.39,0l.64.32.58-.75c.05-.07-.28-.55.18-.17l.57-.39.09-.9-.74-.47.27-.73c.04-.16-.03-.32-.17-.41l-.55-.35-.48.4-.6-.74-.24.05c-.13.03-.24.13-.26.27Z"/>
          <path class="cls-8" d="m105.59,105.48l-.11.67-.82-.12c-.14-.02-.28.04-.35.16l-.32.5.42.46c.15.16.52.58.11.59l-.24.62.61.34.54.87.47-.23c.12-.06.27-.06.39,0l.64.32.58-.75c.05-.07-.28-.55.18-.17l.57-.39.09-.9-.74-.47.27-.73c.04-.16-.03-.32-.17-.41l-.55-.35-.48.4-.6-.74-.24.05c-.13.03-.24.13-.26.27Z"/>
          <path class="cls-8" d="m104.98,115.37l-.11.67-.82-.12c-.14-.02-.28.04-.35.16l-.32.5.42.46c.15.16.52.58.11.59l-.24.62.61.34.54.87.47-.23c.12-.06.27-.06.39,0l.64.32.58-.75c.05-.07-.28-.55.18-.17l.57-.39.09-.9-.74-.47.27-.73c.04-.16-.03-.32-.17-.41l-.55-.35-.48.4-.6-.74-.24.05c-.13.03-.24.13-.26.27Z"/>
          <path class="cls-8" d="m104.43,74.92l-.11.67-.82-.12c-.14-.02-.28.04-.35.16l-.32.5.42.46c.15.16.52.58.11.59l-.24.62.61.34.54.87.47-.23c.12-.06.27-.06.39,0l.64.32.58-.75c.05-.07-.28-.55.18-.17l.57-.39.09-.9-.74-.47.27-.73c.04-.16-.03-.32-.17-.41l-.55-.35-.48.4-.6-.74-.24.05c-.13.03-.24.13-.26.27Z"/>
          <path class="cls-8" d="m102.83,104.94l-.11.67-.82-.12c-.14-.02-.28.04-.35.16l-.32.5.42.46c.15.16.52.58.11.59l-.24.62.61.34.54.87.47-.23c.12-.06.27-.06.39,0l.64.32.58-.75c.05-.07-.28-.55.18-.17l.57-.39.09-.9-.74-.47.27-.73c.04-.16-.03-.32-.17-.41l-.55-.35-.48.4-.6-.74-.24.05c-.13.03-.24.13-.26.27Z"/>
          <path class="cls-8" d="m100.67,33.5l-.11.67-.82-.12c-.14-.02-.28.04-.35.16l-.32.5.42.46c.15.16.52.58.11.59l-.24.62.61.34.54.87.47-.23c.12-.06.27-.06.39,0l.64.32.58-.75c.05-.07-.28-.55.18-.17l.57-.39.09-.9-.74-.47.27-.73c.04-.16-.03-.32-.17-.41l-.55-.35-.48.4-.6-.74-.24.05c-.13.03-.24.13-.26.27Z"/>
          <path class="cls-8" d="m100.01,39.04l-.11.67-.82-.12c-.14-.02-.28.04-.35.16l-.32.5.42.46c.15.16.52.58.11.59l-.24.62.61.34.54.87.47-.23c.12-.06.27-.06.39,0l.64.32.58-.75c.05-.07-.28-.55.18-.17l.57-.39.09-.9-.74-.47.27-.73c.04-.16-.03-.32-.17-.41l-.55-.35-.48.4-.6-.74-.24.05c-.13.03-.24.13-.26.27Z"/>
          <path class="cls-8" d="m98.04,76.61l-.11.67-.82-.12c-.14-.02-.28.04-.35.16l-.32.5.42.46c.15.16.52.58.11.59l-.24.62.61.34.54.87.47-.23c.12-.06.27-.06.39,0l.64.32.58-.75c.05-.07-.28-.55.18-.17l.57-.39.09-.9-.74-.47.27-.73c.04-.16-.03-.32-.17-.41l-.55-.35-.48.4-.6-.74-.24.05c-.13.03-.24.13-.26.27Z"/>
          <path class="cls-8" d="m96.05,128.12l-.11.67-.82-.12c-.14-.02-.28.04-.35.16l-.32.5.42.46c.15.16.52.58.11.59l-.24.62.61.34.54.87.47-.23c.12-.06.27-.06.39,0l.64.32.58-.75c.05-.07-.28-.55.18-.17l.57-.39.09-.9-.74-.47.27-.73c.04-.16-.03-.32-.17-.41l-.55-.35-.48.4-.6-.74-.24.05c-.13.03-.24.13-.26.27Z"/>
          <path class="cls-8" d="m95.23,86.75l-.11.67-.82-.12c-.14-.02-.28.04-.35.16l-.32.5.42.46c.15.16.52.58.11.59l-.24.62.61.34.54.87.47-.23c.12-.06.27-.06.39,0l.64.32.58-.75c.05-.07-.28-.55.18-.17l.57-.39.09-.9-.74-.47.27-.73c.04-.16-.03-.32-.17-.41l-.55-.35-.48.4-.6-.74-.24.05c-.13.03-.24.13-.26.27Z"/>
          <path class="cls-8" d="m93.72,59.18l-.11.67-.82-.12c-.14-.02-.28.04-.35.16l-.32.5.42.46c.15.16.52.58.11.59l-.24.62.61.34.54.87.47-.23c.12-.06.27-.06.39,0l.64.32.58-.75c.05-.07-.28-.55.18-.17l.57-.39.09-.9-.74-.47.27-.73c.04-.16-.03-.32-.17-.41l-.55-.35-.48.4-.6-.74-.24.05c-.13.03-.24.13-.26.27Z"/>
          <path class="cls-8" d="m91.75,73.66l-.11.67-.82-.12c-.14-.02-.28.04-.35.16l-.32.5.42.46c.15.16.52.58.11.59l-.24.62.61.34.54.87.47-.23c.12-.06.27-.06.39,0l.64.32.58-.75c.05-.07-.28-.55.18-.17l.57-.39.09-.9-.74-.47.27-.73c.04-.16-.03-.32-.17-.41l-.55-.35-.48.4-.6-.74-.24.05c-.13.03-.24.13-.26.27Z"/>
          <path class="cls-8" d="m89.78,92.71l-.11.67-.82-.12c-.14-.02-.28.04-.35.16l-.32.5.42.46c.15.16.52.58.11.59l-.24.62.61.34.54.87.47-.23c.12-.06.27-.06.39,0l.64.32.58-.75c.05-.07-.28-.55.18-.17l.57-.39.09-.9-.74-.47.27-.73c.04-.16-.03-.32-.17-.41l-.55-.35-.48.4-.6-.74-.24.05c-.13.03-.24.13-.26.27Z"/>
          <path class="cls-8" d="m87.7,41.66l-.11.67-.82-.12c-.14-.02-.28.04-.35.16l-.32.5.42.46c.15.16.52.58.11.59l-.24.62.61.34.54.87.47-.23c.12-.06.27-.06.39,0l.64.32.58-.75c.05-.07-.28-.55.18-.17l.57-.39.09-.9-.74-.47.27-.73c.04-.16-.03-.32-.17-.41l-.55-.35-.48.4-.6-.74-.24.05c-.13.03-.24.13-.26.27Z"/>
          <path class="cls-8" d="m86.3,71.48l-.11.67-.82-.12c-.14-.02-.28.04-.35.16l-.32.5.42.46c.15.16.52.58.11.59l-.24.62.61.34.54.87.47-.23c.12-.06.27-.06.39,0l.64.32.58-.75c.05-.07-.28-.55.18-.17l.57-.39.09-.9-.74-.47.27-.73c.04-.16-.03-.32-.17-.41l-.55-.35-.48.4-.6-.74-.24.05c-.13.03-.24.13-.26.27Z"/>
          <path class="cls-8" d="m85.38,98.29l-.11.67-.82-.12c-.14-.02-.28.04-.35.16l-.32.5.42.46c.15.16.52.58.11.59l-.24.62.61.34.54.87.47-.23c.12-.06.27-.06.39,0l.64.32.58-.75c.05-.07-.28-.55.18-.17l.57-.39.09-.9-.74-.47.27-.73c.04-.16-.03-.32-.17-.41l-.55-.35-.48.4-.6-.74-.24.05c-.13.03-.24.13-.26.27Z"/>
          <path class="cls-8" d="m83.41,33.21l-.11.67-.82-.12c-.14-.02-.28.04-.35.16l-.32.5.42.46c.15.16.52.58.11.59l-.24.62.61.34.54.87.47-.23c.12-.06.27-.06.39,0l.64.32.58-.75c.05-.07-.28-.55.18-.17l.57-.39.09-.9-.74-.47.27-.73c.04-.16-.03-.32-.17-.41l-.55-.35-.48.4-.6-.74-.24.05c-.13.03-.24.13-.26.27Z"/>
          <path class="cls-8" d="m82.83,57.25l-.11.67-.82-.12c-.14-.02-.28.04-.35.16l-.32.5.42.46c.15.16.52.58.11.59l-.24.62.61.34.54.87.47-.23c.12-.06.27-.06.39,0l.64.32.58-.75c.05-.07-.28-.55.18-.17l.57-.39.09-.9-.74-.47.27-.73c.04-.16-.03-.32-.17-.41l-.55-.35-.48.4-.6-.74-.24.05c-.13.03-.24.13-.26.27Z"/>
          <path class="cls-8" d="m82.21,102.58l-.11.67-.82-.12c-.14-.02-.28.04-.35.16l-.32.5.42.46c.15.16.52.58.11.59l-.24.62.61.34.54.87.47-.23c.12-.06.27-.06.39,0l.64.32.58-.75c.05-.07-.28-.55.18-.17l.57-.39.09-.9-.74-.47.27-.73c.04-.16-.03-.32-.17-.41l-.55-.35-.48.4-.6-.74-.24.05c-.13.03-.24.13-.26.27Z"/>
          <path class="cls-8" d="m80.8,39.22l-.11.67-.82-.12c-.14-.02-.28.04-.35.16l-.32.5.42.46c.15.16.52.58.11.59l-.24.62.61.34.54.87.47-.23c.12-.06.27-.06.39,0l.64.32.58-.75c.05-.07-.28-.55.18-.17l.57-.39.09-.9-.74-.47.27-.73c.04-.16-.03-.32-.17-.41l-.55-.35-.48.4-.6-.74-.24.05c-.13.03-.24.13-.26.27Z"/>
          <path class="cls-8" d="m78.97,40.29l-.11.67-.82-.12c-.14-.02-.28.04-.35.16l-.32.5.42.46c.15.16.52.58.11.59l-.24.62.61.34.54.87.47-.23c.12-.06.27-.06.39,0l.64.32.58-.75c.05-.07-.28-.55.18-.17l.57-.39.09-.9-.74-.47.27-.73c.04-.16-.03-.32-.17-.41l-.55-.35-.48.4-.6-.74-.24.05c-.13.03-.24.13-.26.27Z"/>
          <path class="cls-8" d="m77.37,107.45l-.11.67-.82-.12c-.14-.02-.28.04-.35.16l-.32.5.42.46c.15.16.52.58.11.59l-.24.62.61.34.54.87.47-.23c.12-.06.27-.06.39,0l.64.32.58-.75c.05-.07-.28-.55.18-.17l.57-.39.09-.9-.74-.47.27-.73c.04-.16-.03-.32-.17-.41l-.55-.35-.48.4-.6-.74-.24.05c-.13.03-.24.13-.26.27Z"/>
          <path class="cls-8" d="m76.15,118.86l-.11.67-.82-.12c-.14-.02-.28.04-.35.16l-.32.5.42.46c.15.16.52.58.11.59l-.24.62.61.34.54.87.47-.23c.12-.06.27-.06.39,0l.64.32.58-.75c.05-.07-.28-.55.18-.17l.57-.39.09-.9-.74-.47.27-.73c.04-.16-.03-.32-.17-.41l-.55-.35-.48.4-.6-.74-.24.05c-.13.03-.24.13-.26.27Z"/>
          <path class="cls-8" d="m75.17,122.97l-.11.67-.82-.12c-.14-.02-.28.04-.35.16l-.32.5.42.46c.15.16.52.58.11.59l-.24.62.61.34.54.87.47-.23c.12-.06.27-.06.39,0l.64.32.58-.75c.05-.07-.28-.55.18-.17l.57-.39.09-.9-.74-.47.27-.73c.04-.16-.03-.32-.17-.41l-.55-.35-.48.4-.6-.74-.24.05c-.13.03-.24.13-.26.27Z"/>
          <path class="cls-8" d="m74.01,84.55l-.11.67-.82-.12c-.14-.02-.28.04-.35.16l-.32.5.42.46c.15.16.52.58.11.59l-.24.62.61.34.54.87.47-.23c.12-.06.27-.06.39,0l.64.32.58-.75c.05-.07-.28-.55.18-.17l.57-.39.09-.9-.74-.47.27-.73c.04-.16-.03-.32-.17-.41l-.55-.35-.48.4-.6-.74-.24.05c-.13.03-.24.13-.26.27Z"/>
          <path class="cls-8" d="m72.2,64.86l-.11.67-.82-.12c-.14-.02-.28.04-.35.16l-.32.5.42.46c.15.16.52.58.11.59l-.24.62.61.34.54.87.47-.23c.12-.06.27-.06.39,0l.64.32.58-.75c.05-.07-.28-.55.18-.17l.57-.39.09-.9-.74-.47.27-.73c.04-.16-.03-.32-.17-.41l-.55-.35-.48.4-.6-.74-.24.05c-.13.03-.24.13-.26.27Z"/>
          <path class="cls-8" d="m71.05,119.89l-.11.67-.82-.12c-.14-.02-.28.04-.35.16l-.32.5.42.46c.15.16.52.58.11.59l-.24.62.61.34.54.87.47-.23c.12-.06.27-.06.39,0l.64.32.58-.75c.05-.07-.28-.55.18-.17l.57-.39.09-.9-.74-.47.27-.73c.04-.16-.03-.32-.17-.41l-.55-.35-.48.4-.6-.74-.24.05c-.13.03-.24.13-.26.27Z"/>
          <path class="cls-8" d="m70.08,62.91l-.11.67-.82-.12c-.14-.02-.28.04-.35.16l-.32.5.42.46c.15.16.52.58.11.59l-.24.62.61.34.54.87.47-.23c.12-.06.27-.06.39,0l.64.32.58-.75c.05-.07-.28-.55.18-.17l.57-.39.09-.9-.74-.47.27-.73c.04-.16-.03-.32-.17-.41l-.55-.35-.48.4-.6-.74-.24.05c-.13.03-.24.13-.26.27Z"/>
          <path class="cls-8" d="m68.6,123.51l-.11.67-.82-.12c-.14-.02-.28.04-.35.16l-.32.5.42.46c.15.16.52.58.11.59l-.24.62.61.34.54.87.47-.23c.12-.06.27-.06.39,0l.64.32.58-.75c.05-.07-.28-.55.18-.17l.57-.39.09-.9-.74-.47.27-.73c.04-.16-.03-.32-.17-.41l-.55-.35-.48.4-.6-.74-.24.05c-.13.03-.24.13-.26.27Z"/>
          <path class="cls-8" d="m67.27,100.87l-.11.67-.82-.12c-.14-.02-.28.04-.35.16l-.32.5.42.46c.15.16.52.58.11.59l-.24.62.61.34.54.87.47-.23c.12-.06.27-.06.39,0l.64.32.58-.75c.05-.07-.28-.55.18-.17l.57-.39.09-.9-.74-.47.27-.73c.04-.16-.03-.32-.17-.41l-.55-.35-.48.4-.6-.74-.24.05c-.13.03-.24.13-.26.27Z"/>
          <path class="cls-8" d="m65.09,41.38l-.11.67-.82-.12c-.14-.02-.28.04-.35.16l-.32.5.42.46c.15.16.52.58.11.59l-.24.62.61.34.54.87.47-.23c.12-.06.27-.06.39,0l.64.32.58-.75c.05-.07-.28-.55.18-.17l.57-.39.09-.9-.74-.47.27-.73c.04-.16-.03-.32-.17-.41l-.55-.35-.48.4-.6-.74-.24.05c-.13.03-.24.13-.26.27Z"/>
          <path class="cls-8" d="m64.2,80.87l-.11.67-.82-.12c-.14-.02-.28.04-.35.16l-.32.5.42.46c.15.16.52.58.11.59l-.24.62.61.34.54.87.47-.23c.12-.06.27-.06.39,0l.64.32.58-.75c.05-.07-.28-.55.18-.17l.57-.39.09-.9-.74-.47.27-.73c.04-.16-.03-.32-.17-.41l-.55-.35-.48.4-.6-.74-.24.05c-.13.03-.24.13-.26.27Z"/>
          <path class="cls-8" d="m63.19,102.68l-.11.67-.82-.12c-.14-.02-.28.04-.35.16l-.32.5.42.46c.15.16.52.58.11.59l-.24.62.61.34.54.87.47-.23c.12-.06.27-.06.39,0l.64.32.58-.75c.05-.07-.28-.55.18-.17l.57-.39.09-.9-.74-.47.27-.73c.04-.16-.03-.32-.17-.41l-.55-.35-.48.4-.6-.74-.24.05c-.13.03-.24.13-.26.27Z"/>
          <path class="cls-8" d="m61.83,104.87l-.11.67-.82-.12c-.14-.02-.28.04-.35.16l-.32.5.42.46c.15.16.52.58.11.59l-.24.62.61.34.54.87.47-.23c.12-.06.27-.06.39,0l.64.32.58-.75c.05-.07-.28-.55.18-.17l.57-.39.09-.9-.74-.47.27-.73c.04-.16-.03-.32-.17-.41l-.55-.35-.48.4-.6-.74-.24.05c-.13.03-.24.13-.26.27Z"/>
          <path class="cls-8" d="m61.28,78.19l-.11.67-.82-.12c-.14-.02-.28.04-.35.16l-.32.5.42.46c.15.16.52.58.11.59l-.24.62.61.34.54.87.47-.23c.12-.06.27-.06.39,0l.64.32.58-.75c.05-.07-.28-.55.18-.17l.57-.39.09-.9-.74-.47.27-.73c.04-.16-.03-.32-.17-.41l-.55-.35-.48.4-.6-.74-.24.05c-.13.03-.24.13-.26.27Z"/>
          <path class="cls-8" d="m60.55,69.03l-.11.67-.82-.12c-.14-.02-.28.04-.35.16l-.32.5.42.46c.15.16.52.58.11.59l-.24.62.61.34.54.87.47-.23c.12-.06.27-.06.39,0l.64.32.58-.75c.05-.07-.28-.55.18-.17l.57-.39.09-.9-.74-.47.27-.73c.04-.16-.03-.32-.17-.41l-.55-.35-.48.4-.6-.74-.24.05c-.13.03-.24.13-.26.27Z"/>
          <path class="cls-8" d="m58.6,115.48l-.11.67-.82-.12c-.14-.02-.28.04-.35.16l-.32.5.42.46c.15.16.52.58.11.59l-.24.62.61.34.54.87.47-.23c.12-.06.27-.06.39,0l.64.32.58-.75c.05-.07-.28-.55.18-.17l.57-.39.09-.9-.74-.47.27-.73c.04-.16-.03-.32-.17-.41l-.55-.35-.48.4-.6-.74-.24.05c-.13.03-.24.13-.26.27Z"/>
          <path class="cls-8" d="m56.97,94.54l-.11.67-.82-.12c-.14-.02-.28.04-.35.16l-.32.5.42.46c.15.16.52.58.11.59l-.24.62.61.34.54.87.47-.23c.12-.06.27-.06.39,0l.64.32.58-.75c.05-.07-.28-.55.18-.17l.57-.39.09-.9-.74-.47.27-.73c.04-.16-.03-.32-.17-.41l-.55-.35-.48.4-.6-.74-.24.05c-.13.03-.24.13-.26.27Z"/>
          <path class="cls-8" d="m55.24,45.26l-.11.67-.82-.12c-.14-.02-.28.04-.35.16l-.32.5.42.46c.15.16.52.58.11.59l-.24.62.61.34.54.87.47-.23c.12-.06.27-.06.39,0l.64.32.58-.75c.05-.07-.28-.55.18-.17l.57-.39.09-.9-.74-.47.27-.73c.04-.16-.03-.32-.17-.41l-.55-.35-.48.4-.6-.74-.24.05c-.13.03-.24.13-.26.27Z"/>
          <path class="cls-8" d="m53.17,71.01l-.11.67-.82-.12c-.14-.02-.28.04-.35.16l-.32.5.42.46c.15.16.52.58.11.59l-.24.62.61.34.54.87.47-.23c.12-.06.27-.06.39,0l.64.32.58-.75c.05-.07-.28-.55.18-.17l.57-.39.09-.9-.74-.47.27-.73c.04-.16-.03-.32-.17-.41l-.55-.35-.48.4-.6-.74-.24.05c-.13.03-.24.13-.26.27Z"/>
          <path class="cls-8" d="m51.56,96.78l-.11.67-.82-.12c-.14-.02-.28.04-.35.16l-.32.5.42.46c.15.16.52.58.11.59l-.24.62.61.34.54.87.47-.23c.12-.06.27-.06.39,0l.64.32.58-.75c.05-.07-.28-.55.18-.17l.57-.39.09-.9-.74-.47.27-.73c.04-.16-.03-.32-.17-.41l-.55-.35-.48.4-.6-.74-.24.05c-.13.03-.24.13-.26.27Z"/>
          <path class="cls-8" d="m50.87,30.14l-.11.67-.82-.12c-.14-.02-.28.04-.35.16l-.32.5.42.46c.15.16.52.58.11.59l-.24.62.61.34.54.87.47-.23c.12-.06.27-.06.39,0l.64.32.58-.75c.05-.07-.28-.55.18-.17l.57-.39.09-.9-.74-.47.27-.73c.04-.16-.03-.32-.17-.41l-.55-.35-.48.4-.6-.74-.24.05c-.13.03-.24.13-.26.27Z"/>
          <path class="cls-8" d="m49.62,121.73l-.11.67-.82-.12c-.14-.02-.28.04-.35.16l-.32.5.42.46c.15.16.52.58.11.59l-.24.62.61.34.54.87.47-.23c.12-.06.27-.06.39,0l.64.32.58-.75c.05-.07-.28-.55.18-.17l.57-.39.09-.9-.74-.47.27-.73c.04-.16-.03-.32-.17-.41l-.55-.35-.48.4-.6-.74-.24.05c-.13.03-.24.13-.26.27Z"/>
          <path class="cls-8" d="m48.9,111.72l-.11.67-.82-.12c-.14-.02-.28.04-.35.16l-.32.5.42.46c.15.16.52.58.11.59l-.24.62.61.34.54.87.47-.23c.12-.06.27-.06.39,0l.64.32.58-.75c.05-.07-.28-.55.18-.17l.57-.39.09-.9-.74-.47.27-.73c.04-.16-.03-.32-.17-.41l-.55-.35-.48.4-.6-.74-.24.05c-.13.03-.24.13-.26.27Z"/>
          <path class="cls-8" d="m46.64,114.64l-.11.67-.82-.12c-.14-.02-.28.04-.35.16l-.32.5.42.46c.15.16.52.58.11.59l-.24.62.61.34.54.87.47-.23c.12-.06.27-.06.39,0l.64.32.58-.75c.05-.07-.28-.55.18-.17l.57-.39.09-.9-.74-.47.27-.73c.04-.16-.03-.32-.17-.41l-.55-.35-.48.4-.6-.74-.24.05c-.13.03-.24.13-.26.27Z"/>
          <path class="cls-8" d="m45.83,46.32l-.11.67-.82-.12c-.14-.02-.28.04-.35.16l-.32.5.42.46c.15.16.52.58.11.59l-.24.62.61.34.54.87.47-.23c.12-.06.27-.06.39,0l.64.32.58-.75c.05-.07-.28-.55.18-.17l.57-.39.09-.9-.74-.47.27-.73c.04-.16-.03-.32-.17-.41l-.55-.35-.48.4-.6-.74-.24.05c-.13.03-.24.13-.26.27Z"/>
          <path class="cls-8" d="m43.73,106.28l-.11.67-.82-.12c-.14-.02-.28.04-.35.16l-.32.5.42.46c.15.16.52.58.11.59l-.24.62.61.34.54.87.47-.23c.12-.06.27-.06.39,0l.64.32.58-.75c.05-.07-.28-.55.18-.17l.57-.39.09-.9-.74-.47.27-.73c.04-.16-.03-.32-.17-.41l-.55-.35-.48.4-.6-.74-.24.05c-.13.03-.24.13-.26.27Z"/>
          <path class="cls-8" d="m42.91,38.41l-.11.67-.82-.12c-.14-.02-.28.04-.35.16l-.32.5.42.46c.15.16.52.58.11.59l-.24.62.61.34.54.87.47-.23c.12-.06.27-.06.39,0l.64.32.58-.75c.05-.07-.28-.55.18-.17l.57-.39.09-.9-.74-.47.27-.73c.04-.16-.03-.32-.17-.41l-.55-.35-.48.4-.6-.74-.24.05c-.13.03-.24.13-.26.27Z"/>
          <path class="cls-8" d="m42.1,104.45l-.11.67-.82-.12c-.14-.02-.28.04-.35.16l-.32.5.42.46c.15.16.52.58.11.59l-.24.62.61.34.54.87.47-.23c.12-.06.27-.06.39,0l.64.32.58-.75c.05-.07-.28-.55.18-.17l.57-.39.09-.9-.74-.47.27-.73c.04-.16-.03-.32-.17-.41l-.55-.35-.48.4-.6-.74-.24.05c-.13.03-.24.13-.26.27Z"/>
          <path class="cls-8" d="m40.83,124.11l-.11.67-.82-.12c-.14-.02-.28.04-.35.16l-.32.5.42.46c.15.16.52.58.11.59l-.24.62.61.34.54.87.47-.23c.12-.06.27-.06.39,0l.64.32.58-.75c.05-.07-.28-.55.18-.17l.57-.39.09-.9-.74-.47.27-.73c.04-.16-.03-.32-.17-.41l-.55-.35-.48.4-.6-.74-.24.05c-.13.03-.24.13-.26.27Z"/>
          <path class="cls-8" d="m38.96,127.34l-.11.67-.82-.12c-.14-.02-.28.04-.35.16l-.32.5.42.46c.15.16.52.58.11.59l-.24.62.61.34.54.87.47-.23c.12-.06.27-.06.39,0l.64.32.58-.75c.05-.07-.28-.55.18-.17l.57-.39.09-.9-.74-.47.27-.73c.04-.16-.03-.32-.17-.41l-.55-.35-.48.4-.6-.74-.24.05c-.13.03-.24.13-.26.27Z"/>
          <path class="cls-8" d="m37.63,109.62l-.11.67-.82-.12c-.14-.02-.28.04-.35.16l-.32.5.42.46c.15.16.52.58.11.59l-.24.62.61.34.54.87.47-.23c.12-.06.27-.06.39,0l.64.32.58-.75c.05-.07-.28-.55.18-.17l.57-.39.09-.9-.74-.47.27-.73c.04-.16-.03-.32-.17-.41l-.55-.35-.48.4-.6-.74-.24.05c-.13.03-.24.13-.26.27Z"/>
          <path class="cls-8" d="m37.08,44.51l-.11.67-.82-.12c-.14-.02-.28.04-.35.16l-.32.5.42.46c.15.16.52.58.11.59l-.24.62.61.34.54.87.47-.23c.12-.06.27-.06.39,0l.64.32.58-.75c.05-.07-.28-.55.18-.17l.57-.39.09-.9-.74-.47.27-.73c.04-.16-.03-.32-.17-.41l-.55-.35-.48.4-.6-.74-.24.05c-.13.03-.24.13-.26.27Z"/>
          <path class="cls-8" d="m35.5,31.46l-.11.67-.82-.12c-.14-.02-.28.04-.35.16l-.32.5.42.46c.15.16.52.58.11.59l-.24.62.61.34.54.87.47-.23c.12-.06.27-.06.39,0l.64.32.58-.75c.05-.07-.28-.55.18-.17l.57-.39.09-.9-.74-.47.27-.73c.04-.16-.03-.32-.17-.41l-.55-.35-.48.4-.6-.74-.24.05c-.13.03-.24.13-.26.27Z"/>
          <path class="cls-8" d="m34.21,113.71l-.11.67-.82-.12c-.14-.02-.28.04-.35.16l-.32.5.42.46c.15.16.52.58.11.59l-.24.62.61.34.54.87.47-.23c.12-.06.27-.06.39,0l.64.32.58-.75c.05-.07-.28-.55.18-.17l.57-.39.09-.9-.74-.47.27-.73c.04-.16-.03-.32-.17-.41l-.55-.35-.48.4-.6-.74-.24.05c-.13.03-.24.13-.26.27Z"/>
          <path class="cls-8" d="m33.46,37.14l-.11.67-.82-.12c-.14-.02-.28.04-.35.16l-.32.5.42.46c.15.16.52.58.11.59l-.24.62.61.34.54.87.47-.23c.12-.06.27-.06.39,0l.64.32.58-.75c.05-.07-.28-.55.18-.17l.57-.39.09-.9-.74-.47.27-.73c.04-.16-.03-.32-.17-.41l-.55-.35-.48.4-.6-.74-.24.05c-.13.03-.24.13-.26.27Z"/>
          <path class="cls-8" d="m31.78,60.12l-.11.67-.82-.12c-.14-.02-.28.04-.35.16l-.32.5.42.46c.15.16.52.58.11.59l-.24.62.61.34.54.87.47-.23c.12-.06.27-.06.39,0l.64.32.58-.75c.05-.07-.28-.55.18-.17l.57-.39.09-.9-.74-.47.27-.73c.04-.16-.03-.32-.17-.41l-.55-.35-.48.4-.6-.74-.24.05c-.13.03-.24.13-.26.27Z"/>
          <path class="cls-8" d="m29.95,100.31l-.11.67-.82-.12c-.14-.02-.28.04-.35.16l-.32.5.42.46c.15.16.52.58.11.59l-.24.62.61.34.54.87.47-.23c.12-.06.27-.06.39,0l.64.32.58-.75c.05-.07-.28-.55.18-.17l.57-.39.09-.9-.74-.47.27-.73c.04-.16-.03-.32-.17-.41l-.55-.35-.48.4-.6-.74-.24.05c-.13.03-.24.13-.26.27Z"/>
          <path class="cls-8" d="m28,59.84l-.11.67-.82-.12c-.14-.02-.28.04-.35.16l-.32.5.42.46c.15.16.52.58.11.59l-.24.62.61.34.54.87.47-.23c.12-.06.27-.06.39,0l.64.32.58-.75c.05-.07-.28-.55.18-.17l.57-.39.09-.9-.74-.47.27-.73c.04-.16-.03-.32-.17-.41l-.55-.35-.48.4-.6-.74-.24.05c-.13.03-.24.13-.26.27Z"/>
        </g>
        <g>
          <circle class="cls-11" cx="163.93" cy="88.17" r="8.59"/>
          <circle class="cls-11" cx="162.64" cy="92.01" r="8.59"/>
          <circle class="cls-11" cx="161.31" cy="95.84" r="8.59"/>
          <circle class="cls-11" cx="159.87" cy="99.63" r="8.59"/>
          <circle class="cls-11" cx="158.28" cy="103.36" r="8.59"/>
          <circle class="cls-11" cx="156.68" cy="107.09" r="8.59"/>
          <circle class="cls-11" cx="155" cy="110.78" r="8.59"/>
          <circle class="cls-11" cx="153" cy="114.3" r="8.59"/>
          <circle class="cls-11" cx="151" cy="117.83" r="8.59"/>
          <circle class="cls-11" cx="149" cy="121.36" r="8.59"/>
          <circle class="cls-11" cx="146.5" cy="124.54" r="8.59"/>
          <circle class="cls-11" cx="143.85" cy="127.61" r="8.59"/>
          <circle class="cls-11" cx="141.2" cy="130.68" r="8.59"/>
          <circle class="cls-11" cx="138.08" cy="133.15" r="8.59"/>
          <circle class="cls-11" cx="134.48" cy="135.02" r="8.59"/>
          <circle class="cls-11" cx="130.88" cy="136.89" r="8.59"/>
          <circle class="cls-11" cx="127.02" cy="137.16" r="8.59"/>
          <circle class="cls-11" cx="123.02" cy="136.52" r="8.59"/>
          <circle class="cls-11" cx="119.01" cy="135.88" r="8.59"/>
          <circle class="cls-11" cx="115.66" cy="133.86" r="8.59"/>
          <circle class="cls-11" cx="112.61" cy="131.18" r="8.59"/>
          <circle class="cls-11" cx="109.56" cy="128.51" r="8.59"/>
          <circle class="cls-11" cx="106.51" cy="125.84" r="8.59"/>
          <circle class="cls-11" cx="103.77" cy="122.9" r="8.59"/>
          <circle class="cls-11" cx="101.65" cy="119.44" r="8.59"/>
          <circle class="cls-11" cx="99.54" cy="115.98" r="8.59"/>
          <circle class="cls-11" cx="97.43" cy="112.52" r="8.59"/>
          <circle class="cls-11" cx="95.31" cy="109.06" r="8.59"/>
          <circle class="cls-11" cx="93.2" cy="105.59" r="8.59"/>
          <circle class="cls-11" cx="91.08" cy="102.13" r="8.59"/>
          <circle class="cls-11" cx="88.98" cy="98.67" r="8.59"/>
          <circle class="cls-11" cx="86.88" cy="95.19" r="8.59"/>
          <circle class="cls-11" cx="84.79" cy="91.72" r="8.59"/>
          <circle class="cls-11" cx="82.69" cy="88.25" r="8.59"/>
          <circle class="cls-11" cx="80.59" cy="84.78" r="8.59"/>
          <circle class="cls-11" cx="78.5" cy="81.3" r="8.59"/>
          <circle class="cls-11" cx="76.4" cy="77.83" r="8.59"/>
          <circle class="cls-11" cx="73.83" cy="74.75" r="8.59"/>
          <circle class="cls-11" cx="70.83" cy="72.02" r="8.59"/>
          <circle class="cls-11" cx="67.83" cy="69.29" r="8.59"/>
          <circle class="cls-11" cx="64.84" cy="66.55" r="8.59"/>
          <circle class="cls-11" cx="61.6" cy="64.3" r="8.59"/>
          <circle class="cls-11" cx="57.61" cy="63.58" r="8.59"/>
          <circle class="cls-11" cx="53.62" cy="62.86" r="8.59"/>
          <circle class="cls-11" cx="49.8" cy="63.25" r="8.59"/>
          <circle class="cls-11" cx="46.23" cy="65.17" r="8.59"/>
          <circle class="cls-11" cx="42.66" cy="67.09" r="8.59"/>
          <circle class="cls-11" cx="39.84" cy="69.92" r="8.59"/>
          <circle class="cls-11" cx="37.3" cy="73.08" r="8.59"/>
          <circle class="cls-11" cx="34.76" cy="76.24" r="8.59"/>
          <circle class="cls-11" cx="32.63" cy="79.67" r="8.59"/>
          <circle class="cls-11" cx="30.77" cy="83.27" r="8.59"/>
          <circle class="cls-11" cx="28.9" cy="86.87" r="8.59"/>
          <circle class="cls-11" cx="27.15" cy="90.53" r="8.59"/>
          <circle class="cls-11" cx="25.7" cy="94.32" r="8.59"/>
          <circle class="cls-11" cx="24.25" cy="98.1" r="8.59"/>
          <circle class="cls-11" cx="22.85" cy="101.91" r="8.59"/>
          <circle class="cls-11" cx="21.66" cy="105.79" r="8.59"/>
          <circle class="cls-11" cx="20.47" cy="109.66" r="8.59"/>
          <circle class="cls-11" cx="19.44" cy="113.58" r="8.59"/>
        </g>
        <use width="191.54" height="61.87" transform="translate(88.81 78.57) rotate(-8.48) scale(.36)" xlink:href="#New_Symbol"/>
        <path class="cls-12" d="m132.53,123.03c2.49-7.84.94-16.25-3.94-22.25.81-.28,1.6-.6,2.37-1,5.69-2.93,8.77-7.06,11.71-12.68,3.37-6.46,2.29-15.18-.81-21.49-4.25-8.65-12.3-13.67-21.57-15.16-3.43-.55-6.27-.3-9.89-.11-1.09-2.85-2.6-5.55-4.65-8.06-5.73-7.02-13.66-10.1-22.29-11.71-.49-.09-.98-.17-1.46-.25-1.18-.61-3.05-.98-4.17-1.33-9.35-2.91-19.86-1.17-27.42,5.25-13.31,11.3-14.29,29.86-4.37,43.67,1.55,2.16,3.32,4.03,5.23,5.66-2.71,8.66-4.26,17.62-2.7,26.75,2.42,14.22,12.27,27.11,26.65,30.31,9.25,2.06,16.76-1.46,23.07-7.05,1.58,1.14,3.34,2.1,5.29,2.82,11.07,4.07,25.26-1.76,28.95-13.38Zm-20.49-45.26c-.01-.08-.03-.15-.04-.23.02-.66-.03-1.42,0-1.99,0-.08.01-.16.02-.24.17.08.34.89.01,2.46Z"/>
        <use width="191.54" height="61.87" transform="translate(52.83 42.91) rotate(54.93) scale(.36)" xlink:href="#New_Symbol"/>
        <g>
          <path class="cls-5" d="m126.93,46.47l4.88-11.61-.14,3.36,2.72-1.96-6.8,10.57c-.3.47-.89.17-.67-.35Z"/>
          <path class="cls-9" d="m125.23,43.33l-10.17,24c-.57,1.34.76,2.05,1.56.83l14.33-21.75-.41-1.61c-.46-1.79-2-2.61-3.74-2.01l-1.57.54Z"/>
        </g>
        <g>
          <path class="cls-5" d="m56.99,31.52l-6.2-10.97,2.57,2.16.11-3.36,4.2,11.84c.19.53-.41.81-.68.32Z"/>
          <path class="cls-9" d="m53.46,30.94l12.76,22.73c.71,1.27,2.08.65,1.61-.72l-8.43-24.65-1.53-.66c-1.69-.73-3.29-.02-3.88,1.73l-.53,1.57Z"/>
        </g>
      </g>
    </g>
  </g>
</svg>