<?xml version="1.0" encoding="UTF-8"?>
<svg id="Layer_2" data-name="Layer 2" xmlns="http://www.w3.org/2000/svg" viewBox="0 0 449.58 498.74">
  <defs>
    <style>
      .cls-1 {
        fill: #fff;
      }
    </style>
  </defs>
  <g id="Layer_1-2" data-name="Layer 1">
    <path class="cls-1" d="m195.03,0c-12.89,0-25.21,5.09-34.34,14.22l-10.72,10.72H25.29C11.52,24.74.2,35.75,0,49.52c-.19,13.77,10.81,25.09,24.58,25.29.24,0,.47,0,.71,0h398.99c13.77.19,25.09-10.81,25.29-24.58.19-13.77-10.81-25.09-24.58-25.29-.24,0-.47,0-.71,0h-124.68l-10.72-10.72c-9.1-9.13-21.44-14.22-34.34-14.22h-59.52ZM34.4,124.68l38.09,330.76c3.29,24.69,24.55,43.3,49.44,43.3h205.68c24.89,0,46.17-18.58,49.48-43.49l38.09-330.56H34.4Z"/>
  </g>
</svg>