<?xml version="1.0" encoding="UTF-8"?>
<svg id="Layer_2" data-name="Layer 2" xmlns="http://www.w3.org/2000/svg" viewBox="0 0 479.14 474.97">
  <defs>
    <style>
      .cls-1 {
        fill: #fff;
      }
    </style>
  </defs>
  <g id="Layer_1-2" data-name="Layer 1">
    <g>
      <path class="cls-1" d="m436.88,474.97c-5.64,0-11.29-1.59-16.26-4.77l-151.3-97.74H80.79c-44.55,0-80.79-36.24-80.79-80.79V80.79C0,36.24,36.24,0,80.79,0h317.56c44.55,0,80.79,36.24,80.79,80.79v210.89c0,24.55-10.82,47.14-29.43,62.38l16.75,84.89c2.36,11.86-2.58,23.94-12.59,30.77-5.13,3.5-11.06,5.25-17,5.25ZM80.79,32c-26.9,0-48.79,21.89-48.79,48.79v210.89c0,26.9,21.89,48.79,48.79,48.79h197.97l155.47,100.44-20.07-101.72,9.53-5.81c14.68-8.95,23.45-24.54,23.45-41.7V80.79c0-26.9-21.89-48.79-48.79-48.79H80.79Z"/>
      <path class="cls-1" d="m324.07,171.48h-70.65v-70.65c0-8.35-6.77-15.12-15.12-15.12s-15.12,6.77-15.12,15.12v70.65h-70.65c-8.35,0-15.12,6.77-15.12,15.12s6.77,15.12,15.12,15.12h70.65v70.65c0,8.35,6.77,15.12,15.12,15.12s15.12-6.77,15.12-15.12v-70.65h70.65c8.35,0,15.12-6.77,15.12-15.12s-6.77-15.12-15.12-15.12Z"/>
    </g>
  </g>
</svg>